<svg id="visual" viewBox="0 0 24 24" width="24" height="24" xmlns="http://www.w3.org/2000/svg" xmlns:xlink="http://www.w3.org/1999/xlink" version="1.1"><g transform="translate(11.146576887627273 13.363756461678427)"><path d="M6.2 -10.9C8.1 -9.7 9.7 -8.1 8.6 -6.2C7.5 -4.3 3.8 -2.2 4.5 0.4C5.2 3 10.4 6 10.7 6.6C11.1 7.2 6.5 5.3 3.9 6C1.3 6.6 0.7 9.8 0 9.8C-0.7 9.8 -1.3 6.6 -3.5 5.7C-5.7 4.8 -9.3 6.2 -9 5.6C-8.7 5 -4.3 2.5 -2.6 1C-0.9 -0.5 -1.7 -1 -2.2 -1.9C-2.7 -2.7 -2.9 -4 -2.4 -6C-2 -8.1 -1 -11.1 0.6 -12.1C2.2 -13.1 4.3 -12.2 6.2 -10.9" fill="#4051b5"></path></g></svg>