<?xml version="1.0" encoding="UTF-8"?>
<svg xmlns="http://www.w3.org/2000/svg" xmlns:xlink="http://www.w3.org/1999/xlink" width="64px" height="64px" viewBox="0 0 64 64" version="1.1">
<g id="surface1">
<path style=" stroke:none;fill-rule:nonzero;fill:rgb(67.843137%,75.686275%,39.607843%);fill-opacity:1;" d="M 43.875 51.375 C 39.367188 59.195312 31.027344 64.011719 22 64.011719 C 12.972656 64.011719 4.632812 59.195312 0.125 51.375 C 4.359375 44.203125 11.84375 39.566406 20.152344 38.96875 C 28.457031 38.367188 36.53125 41.882812 41.75 48.375 C 42.53125 49.324219 43.238281 50.324219 43.875 51.375 Z M 43.875 51.375 "/>
<path style=" stroke:none;fill-rule:nonzero;fill:rgb(60%,66.666667%,32.156863%);fill-opacity:1;" d="M 41.75 48.375 C 31.832031 51.300781 21.136719 47.882812 14.75 39.75 C 24.667969 36.824219 35.363281 40.242188 41.75 48.375 Z M 51.5 52.375 L 10.625 52.375 C 10.074219 52.375 9.625 51.925781 9.625 51.375 C 9.625 50.824219 10.074219 50.375 10.625 50.375 L 51.5 50.375 C 52.003906 50.4375 52.378906 50.867188 52.375 51.375 C 52.378906 51.882812 52.003906 52.3125 51.5 52.375 Z M 51.5 52.375 "/>
<path style=" stroke:none;fill-rule:nonzero;fill:rgb(100%,78.039216%,23.137255%);fill-opacity:1;" d="M 46.75 42.25 L 46.125 46 C 37.382812 48.382812 28.039062 45.898438 21.632812 39.492188 C 15.226562 33.085938 12.742188 23.742188 15.125 15 C 23.1875 12.902344 31.769531 14.894531 38.082031 20.332031 C 44.394531 25.773438 47.632812 33.964844 46.75 42.25 Z M 46.75 42.25 "/>
<path style=" stroke:none;fill-rule:nonzero;fill:rgb(93.72549%,69.019608%,14.509804%);fill-opacity:1;" d="M 46.75 42.25 C 38.066406 37.25 33.160156 27.585938 34.25 17.625 C 42.910156 22.648438 47.804688 32.292969 46.75 42.25 Z M 51.5 52.375 L 50.75 52.125 L 21.875 23.25 C 21.632812 22.855469 21.695312 22.347656 22.019531 22.019531 C 22.347656 21.695312 22.855469 21.632812 23.25 21.875 L 52.125 50.625 C 52.433594 50.894531 52.542969 51.328125 52.40625 51.710938 C 52.269531 52.097656 51.910156 52.359375 51.5 52.375 Z M 51.5 52.375 "/>
<path style=" stroke:none;fill-rule:nonzero;fill:rgb(100%,56.470588%,24.313725%);fill-opacity:1;" d="M 38.875 21.875 C 38.875 31.25 43.875 39.375 51.5 43.75 C 59.320312 39.242188 64.136719 30.902344 64.136719 21.875 C 64.136719 12.847656 59.320312 4.507812 51.5 0 C 43.683594 4.511719 38.871094 12.851562 38.875 21.875 Z M 38.875 21.875 "/>
<path style=" stroke:none;fill-rule:nonzero;fill:rgb(90.980392%,45.490196%,14.509804%);fill-opacity:1;" d="M 51.5 52.375 C 50.949219 52.375 50.5 51.925781 50.5 51.375 L 50.5 10.625 C 50.644531 10.234375 51.019531 9.972656 51.4375 9.972656 C 51.855469 9.972656 52.230469 10.234375 52.375 10.625 L 52.375 51.375 C 52.378906 51.882812 52.003906 52.3125 51.5 52.375 Z M 51.5 52.375 "/>
</g>
</svg>
