<svg width="200" height="200" xmlns="http://www.w3.org/2000/svg" version="1.1">
 <g>
  <title>Layer 1</title>
  <path id="svg_1" d="m26.08,0l101.19,0c14.2,0.92 28.19,5.61 39.81,13.87c14.38,10.07 25.14,25.19 29.8,42.12c5.12,18.27 3.15,38.44 -5.58,55.29c-7.83,15.4 -21.07,27.88 -36.78,35.04c8.04,8.03 16.09,16.04 24.09,24.1c4.34,4.2 6.18,10.74 4.58,16.58c-1.63,6.86 -7.75,12.19 -14.74,13l-142.08,0c-12.95,-1.24 -24.25,-11.61 -26.37,-24.47l0,-151.19c2.2,-12.72 13.28,-22.92 26.08,-24.34m-14.39,29.05c-0.43,9.03 7.21,17.43 16.23,17.85c8.41,0.28 16.83,-0.04 25.24,0.15c1.78,-0.03 3.23,1.14 4.43,2.32c29.22,29.22 58.44,58.45 87.67,87.67c13.32,-4.91 24.93,-14.28 32.47,-26.32c7.98,-12.56 11.32,-27.96 9.31,-42.7c-2.02,-15.73 -10.2,-30.52 -22.32,-40.72c-11.27,-9.6 -25.94,-15.14 -40.75,-15.23c-31.69,-0.01 -63.37,-0.02 -95.05,0c-9.08,-0.14 -17.2,7.93 -17.23,16.98m-0.03,24.29c0.08,39.2 -0.02,78.41 0.05,117.62c0,9.09 8.17,17.09 17.24,17c45.71,0.07 91.42,0.05 137.13,0.01c4.65,0.54 7.57,-5.98 3.95,-9.01c-38.8,-38.87 -77.68,-77.67 -116.5,-116.53c-1.18,-1.11 -2.18,-2.45 -3.57,-3.31c-7.32,-0.19 -14.65,0.08 -21.97,-0.13c-5.86,-0.17 -11.57,-2.26 -16.33,-5.65z" fill="#505a6e"/>
  <path id="svg_7" d="m26.18,93.32c12.55,-0.74 25.24,-0.12 37.85,-0.31c3.29,-0.25 6.3,2.68 6.21,5.96c0.12,3.27 -2.86,6.24 -6.15,6.02c-12.36,-0.05 -24.73,0.14 -37.08,-0.09c-5.83,-0.82 -6.46,-9.94 -0.83,-11.58z" fill="#505a6e"/>
  <path id="svg_8" d="m26.22,117.31c1.54,-0.48 3.19,-0.27 4.78,-0.33c18.39,0.05 36.77,-0.01 55.15,0.03c3.27,-0.19 6.21,2.78 6.09,6.03c0.08,3.27 -2.93,6.2 -6.21,5.95c-19.69,-0.06 -39.4,0.16 -59.09,-0.1c-5.8,-0.88 -6.35,-9.98 -0.72,-11.58z" fill="#505a6e"/>
  <path id="svg_9" d="m26.19,141.32c0.44,-0.07 1.33,-0.22 1.77,-0.29c27.38,-0.06 54.77,-0.03 82.15,-0.02c3.28,-0.21 6.24,2.75 6.14,6.01c0.07,3.25 -2.89,6.19 -6.15,5.97c-27.69,-0.04 -55.39,0.14 -83.07,-0.09c-5.84,-0.79 -6.49,-9.95 -0.84,-11.58z" fill="#505a6e"/>
 </g>
</svg>