<svg width="100" height="100" xmlns="http://www.w3.org/2000/svg">
 <defs>
  <clipPath id="clip-SW_TM-logo-on-dark">
   <rect id="svg_1" height="116" width="407"/>
  </clipPath>
 </defs>
 <g>
  <title>Layer 1</title>
  <path fill="#85ea2d" d="m50.027,97.669a47.642,47.642 0 1 1 47.643,-47.642a47.642,47.642 0 0 1 -47.643,47.642z" class="cls-3" id="Path_2938"/>
  <path fill="#85ea2d" d="m50.027,4.769a45.258,45.258 0 1 1 -45.258,45.258a45.258,45.258 0 0 1 45.258,-45.258m0,-4.769a50.027,50.027 0 1 0 50.027,50.027a50.027,50.027 0 0 0 -50.027,-50.027z" class="cls-3" id="Path_2939"/>
  <path fill="#173647" d="m31.499,33.854c-0.154,1.712 0.058,3.482 -0.057,5.213a42.665,42.665 0 0 1 -0.693,5.156a9.53,9.53 0 0 1 -4.1,5.829c4.079,2.654 4.54,6.771 4.81,10.946c0.135,2.25 0.077,4.52 0.308,6.752c0.173,1.731 0.846,2.174 2.636,2.231c0.73,0.02 1.48,0 2.327,0l0,5.349c-5.29,0.9 -9.657,-0.6 -10.734,-5.079a30.76,30.76 0 0 1 -0.654,-5c-0.117,-1.789 0.076,-3.578 -0.058,-5.367c-0.386,-4.906 -1.02,-6.56 -5.713,-6.791l0,-6.1a9.191,9.191 0 0 1 1.028,-0.173c2.577,-0.135 3.674,-0.924 4.231,-3.463a29.3,29.3 0 0 0 0.481,-4.329a82.1,82.1 0 0 1 0.6,-8.406c0.673,-3.982 3.136,-5.906 7.234,-6.137c1.154,-0.057 2.327,0 3.655,0l0,5.464c-0.558,0.038 -1.039,0.115 -1.539,0.115c-3.336,-0.115 -3.51,1.02 -3.762,3.79zm6.406,12.658l-0.077,0a3.515,3.515 0 1 0 -0.346,7.021l0.231,0a3.461,3.461 0 0 0 3.655,-3.251l0,-0.192a3.523,3.523 0 0 0 -3.461,-3.578l-0.002,0zm12.062,0a3.373,3.373 0 0 0 -3.482,3.251a1.79,1.79 0 0 0 0.02,0.327a3.3,3.3 0 0 0 3.578,3.443a3.263,3.263 0 0 0 3.443,-3.558a3.308,3.308 0 0 0 -3.557,-3.463l-0.002,0zm12.351,0a3.592,3.592 0 0 0 -3.655,3.482a3.529,3.529 0 0 0 3.536,3.539l0.039,0c1.769,0.309 3.559,-1.4 3.674,-3.462a3.571,3.571 0 0 0 -3.6,-3.559l0.006,0zm16.948,0.288c-2.232,-0.1 -3.348,-0.846 -3.9,-2.962a21.447,21.447 0 0 1 -0.635,-4.136c-0.154,-2.578 -0.135,-5.175 -0.308,-7.753c-0.4,-6.117 -4.828,-8.252 -11.254,-7.195l0,5.31c1.019,0 1.808,0 2.6,0.019c1.366,0.019 2.4,0.539 2.539,2.059c0.135,1.385 0.135,2.789 0.27,4.193c0.269,2.79 0.422,5.618 0.9,8.369a8.715,8.715 0 0 0 3.921,5.348c-3.4,2.289 -4.406,5.559 -4.578,9.234c-0.1,2.52 -0.154,5.059 -0.289,7.6c-0.115,2.308 -0.923,3.058 -3.251,3.116c-0.654,0.019 -1.289,0.077 -2.019,0.115l0,5.445c1.365,0 2.616,0.077 3.866,0c3.886,-0.231 6.233,-2.117 7,-5.887a49.079,49.079 0 0 0 0.571,-6.275c0.135,-1.923 0.116,-3.866 0.308,-5.771c0.289,-2.982 1.655,-4.213 4.636,-4.4a4.037,4.037 0 0 0 0.828,-0.192l0,-6.1c-0.5,-0.058 -0.843,-0.115 -1.208,-0.135l0.003,-0.002z" class="cls-4" id="Path_2940"/>
 </g>
</svg>