<svg width="1280" height="640" xmlns="http://www.w3.org/2000/svg" version="1.1">
    <g transform="matrix(3.98013,0,0,3.98013,-69.1375,4.91327)" style="fill:#4051b5">
        <path
            d="m 34.026029,104.55901 q 0.064,-3.584 1.216,-6.719996 1.216,-3.2 3.456,-5.504 2.24,-2.368 5.504,-3.712 3.264,-1.408 7.488,-1.408 4.224,0 7.488,1.408 3.264,1.344 5.504,3.712 2.24,2.304 3.392,5.504 1.216,3.135996 1.28,6.719996 0.192,5.696 0,11.392 -0.128,3.584 -1.344,6.784 -1.152,3.136 -3.392,5.504 -2.24,2.368 -5.504,3.712 -3.2,1.344 -7.424,1.344 -4.224,0 -7.488,-1.344 -3.2,-1.344 -5.44,-3.712 -2.24,-2.368 -3.456,-5.504 -1.152,-3.2 -1.28,-6.784 -0.192,-5.696 0,-11.392 z m 29.248,0.32 q -0.128,-3.008 -1.024,-5.247996 -0.832,-2.24 -2.368,-3.712 -1.536,-1.472 -3.648,-2.176 -2.048,-0.768 -4.544,-0.768 -2.496,0 -4.608,0.768 -2.048,0.704 -3.584,2.176 -1.536,1.472 -2.432,3.712 -0.896,2.239996 -0.96,5.247996 -0.128,2.88 -0.128,5.376 0,2.496 0.128,5.376 0.064,3.008 0.96,5.248 0.896,2.24 2.432,3.712 1.536,1.472 3.584,2.24 2.112,0.704 4.608,0.704 2.496,0 4.544,-0.704 2.112,-0.768 3.648,-2.24 1.536,-1.472 2.368,-3.712 0.896,-2.24 1.024,-5.248 0.128,-2.88 0.128,-5.376 0,-2.496 -0.128,-5.376 z" />
        <path
            d="m 93.738086,133.29501 q -3.968,0 -6.336,-1.344 -2.368,-1.408 -3.584,-3.008 v 14.144 q 0,0.704 -0.512,1.216 -0.512,0.512 -1.216,0.512 h -2.368 q -0.704,0 -1.216,-0.512 -0.512,-0.512 -0.512,-1.216 v -41.984 q 0,-0.704 0.512,-1.215996 0.512,-0.512 1.216,-0.512 h 2.368 q 0.704,0 1.216,0.512 0.512,0.511996 0.512,1.215996 v 1.984 q 1.28,-1.728 3.648,-3.008 2.368,-1.343996 6.272,-1.343996 3.008,0 5.568,1.088 2.624004,1.023996 4.544004,3.007996 1.92,1.984 3.072,4.8 1.152,2.816 1.344,6.336 0.064,0.96 0.064,2.112 0,1.088 -0.064,2.048 -0.192,3.52 -1.344,6.336 -1.152,2.816 -3.072,4.8 -1.92,1.92 -4.544004,3.008 -2.56,1.024 -5.568,1.024 z m -9.92,-20.032 q -0.064,0.96 -0.064,2.56 0,1.536 0.064,2.496 0.192,4.544 2.688,7.04 2.56,2.432 6.592,2.432 4.224,0 6.656,-2.688 2.432004,-2.688 2.688004,-7.296 0.064,-1.792 0,-3.584 -0.256,-4.608 -2.688004,-7.296 -2.432,-2.688 -6.656,-2.688 -3.968,0 -6.528,2.432 -2.56,2.432 -2.752,6.592 z" />
        <path
            d="m 114.73006,112.81501 q 0.256,-2.944 1.408,-5.504 1.152,-2.56 3.008,-4.48 1.856,-1.92 4.416,-3.007996 2.624,-1.088 5.824,-1.088 3.456,0 6.144,1.152 2.752,1.087996 4.672,3.199996 1.92,2.112 2.944,5.12 1.024,3.008 1.024,6.72 v 1.728 q 0,0.704 -0.512,1.216 -0.512,0.512 -1.216,0.512 h -22.016 v 0.384 q 0.128,4.352 2.624,6.72 2.56,2.304 6.336,2.304 3.52,0 5.248,-0.96 1.792,-1.024 2.88,-2.24 0.512,-0.512 0.896,-0.704 0.384,-0.192 1.152,-0.192 h 1.92 q 0.704,0 1.28,0.512 0.576,0.512 0.448,1.216 -0.192,1.152 -1.088,2.56 -0.896,1.344 -2.624,2.56 -1.664,1.152 -4.224,1.984 -2.496,0.768 -5.888,0.768 -3.2,0 -5.76,-1.088 -2.56,-1.152 -4.48,-3.072 -1.856,-1.984 -3.008,-4.608 -1.152,-2.688 -1.408,-5.824 -0.32,-2.944 0,-5.888 z m 5.696,0.192 h 17.984 v -0.192 q 0,-3.904 -2.496,-6.208 -2.432,-2.368 -6.528,-2.368 -1.856,0 -3.456,0.64 -1.6,0.576 -2.816,1.728 -1.216,1.088 -1.92,2.688 -0.704,1.6 -0.768,3.52 z" />
        <path
            d="m 181.48201,130.92701 q 0,0.704 -0.512,1.216 -0.512,0.512 -1.216,0.512 h -2.368 q -0.704,0 -1.216,-0.512 -0.512,-0.512 -0.512,-1.216 v -16.896 q 0,-4.928 -2.368,-7.36 -2.368,-2.432 -6.592,-2.432 -4.032,0 -6.528,2.432 -2.432,2.432 -2.432,7.36 v 16.896 q 0,0.704 -0.512,1.216 -0.512,0.512 -1.216,0.512 h -2.368 q -0.704,0 -1.216,-0.512 -0.512,-0.512 -0.512,-1.216 v -29.824 q 0,-0.704 0.512,-1.215996 0.512,-0.512 1.216,-0.512 h 2.368 q 0.704,0 1.216,0.512 0.512,0.511996 0.512,1.215996 v 1.984 q 1.216,-1.6 3.584,-2.944 2.432,-1.407996 6.336,-1.407996 3.008,0 5.568,1.024 2.56,0.959996 4.352,2.815996 1.856,1.792 2.88,4.48 1.024,2.688 1.024,6.016 z" />
        <path
            d="m 218.79403,122.54301 h -22.208 l -3.328,8.512 q -0.192,0.512 -0.704,1.088 -0.512,0.512 -1.792,0.512 h -2.368 q -0.576,0 -1.024,-0.384 -0.384,-0.448 -0.384,-1.024 0,-0.32 0.256,-0.896 l 15.68,-40.383996 q 0.32,-0.704 0.96,-1.408 0.64,-0.704 1.92,-0.704 h 3.84 q 1.28,0 1.92,0.704 0.64,0.704 0.96,1.408 l 15.616,40.383996 q 0.256,0.576 0.256,0.896 0,0.576 -0.448,1.024 -0.384,0.384 -0.96,0.384 h -2.368 q -1.28,0 -1.792,-0.512 -0.512,-0.576 -0.704,-1.088 z m -19.968,-5.76 h 17.728 l -8.832,-22.847996 z" />
        <path
            d="m 252.84205,87.855014 q 3.136,0 5.888,0.832 2.816,0.768 4.928,2.432 2.112,1.664 3.328,4.224 1.28,2.56 1.28,6.079996 0,3.52 -1.28,6.144 -1.216,2.56 -3.328,4.288 -2.112,1.728 -4.928,2.56 -2.752,0.832 -5.888,0.832 h -11.776 v 15.68 q 0,0.704 -0.512,1.216 -0.512,0.512 -1.216,0.512 h -2.624 q -0.704,0 -1.216,-0.512 -0.512,-0.512 -0.512,-1.216 V 89.583014 q 0,-0.704 0.512,-1.216 0.512,-0.512 1.216,-0.512 z m -11.776,21.631996 h 11.456 q 4.608,0 7.104,-1.984 2.56,-1.984 2.56,-6.08 0,-4.095996 -2.56,-5.951996 -2.496,-1.856 -7.104,-1.856 h -11.456 z" />
        <path
            d="m 277.67401,132.65501 q -0.704,0 -1.216,-0.512 -0.512,-0.512 -0.512,-1.216 V 89.583014 q 0,-0.704 0.512,-1.216 0.512,-0.512 1.216,-0.512 h 2.624 q 0.704,0 1.216,0.512 0.512,0.512 0.512,1.216 v 41.343996 q 0,0.704 -0.512,1.216 -0.512,0.512 -1.216,0.512 z" />
        <path
            d="m 296.17002,121.83901 q 0.32,1.024 0.896,2.048 0.576,1.024 1.728,1.856 1.152,0.768 3.008,1.28 1.92,0.512 4.928,0.512 1.984,0 3.776,-0.448 1.792,-0.512 3.136,-1.536 1.344,-1.024 2.112,-2.496 0.832,-1.536 0.832,-3.648 0,-2.048 -0.768,-3.456 -0.768,-1.472 -2.112,-2.304 -1.28,-0.896 -3.072,-1.28 -1.792,-0.384 -3.904,-0.384 h -5.312 q -0.704,0 -1.216,-0.512 -0.512,-0.512 -0.512,-1.216 v -2.304 q 0,-0.576 0.32,-1.024 0.384,-0.512 0.704,-0.896 l 11.52,-12.415996 h -18.432 q -0.704,0 -1.216,-0.512 -0.512,-0.512 -0.512,-1.216 v -2.304 q 0,-0.704 0.512,-1.216 0.512,-0.512 1.216,-0.512 h 25.216 q 0.704,0 1.216,0.512 0.512,0.512 0.512,1.216 v 2.304 q 0,0.576 -0.32,1.152 -0.32,0.512 -0.832,1.024 l -11.328,12.223996 q 3.2,0.064 5.824,1.024 2.688,0.896 4.544,2.624 1.92,1.664 2.944,4.096 1.088,2.368 1.088,5.376 0,3.264 -1.28,5.888 -1.28,2.56 -3.456,4.352 -2.112,1.728 -5.056,2.688 -2.88,0.96 -6.144,0.96 -4.288,0 -7.424,-0.96 -3.072,-1.024 -5.12,-2.624 -1.984,-1.664 -3.008,-3.648 -0.96,-2.048 -1.024,-4.16 0,-0.576 0.384,-0.96 0.448,-0.448 1.024,-0.448 h 2.944 q 0.704,0 1.088,0.448 0.448,0.384 0.576,0.896 z" />
    </g>
    <g transform="matrix(3.98013,0,0,3.98013,-69.1375,4.91327)" style="fill:#4051b5">
        <path
            d="m 166.73142,25.0964 q 0.704,0 1.216,0.512 0.512,0.512 0.512,1.216 v 2.304 q 0,0.704 -0.512,1.216 -0.512,0.512 -1.216,0.512 h -21.056 v 14.784 h 19.776 q 0.704,0 1.216,0.512 0.512,0.512 0.512,1.216 v 2.304 q 0,0.704 -0.512,1.216 -0.512,0.512 -1.216,0.512 h -19.776 v 16.768 q 0,0.704 -0.512,1.216 -0.512,0.512 -1.216,0.512 h -2.624 q -0.704,0 -1.216,-0.512 -0.512,-0.512 -0.512,-1.216 v -41.344 q 0,-0.704 0.512,-1.216 0.512,-0.512 1.216,-0.512 z" />
        <path
            d="m 181.64339,68.1684 q 0,0.704 -0.512,1.216 -0.512,0.512 -1.216,0.512 h -2.368 q -0.704,0 -1.216,-0.512 -0.512,-0.512 -0.512,-1.216 v -41.984 q 0,-0.704 0.512,-1.216 0.512,-0.512 1.216,-0.512 h 2.368 q 0.704,0 1.216,0.512 0.512,0.512 0.512,1.216 z" />
        <path
            d="m 188.87534,61.5124 q 0,-2.56 1.024,-4.48 1.024,-1.92 2.816,-3.264 1.792,-1.344 4.16,-2.176 2.432,-0.832 5.12,-1.28 l 9.024,-1.472 v -0.832 q 0,-3.264 -2.176,-4.864 -2.112,-1.664 -5.312,-1.664 -2.816,0 -4.288,1.024 -1.408,1.024 -2.432,2.432 -0.384,0.512 -0.832,0.704 -0.448,0.192 -1.216,0.192 h -1.92 q -0.704,0 -1.28,-0.512 -0.512,-0.512 -0.448,-1.216 0.128,-1.408 1.088,-2.88 1.024,-1.472 2.688,-2.624 1.728,-1.152 3.904,-1.856 2.24,-0.768 4.736,-0.768 2.88,0 5.312,0.832 2.496,0.832 4.224,2.432 1.792,1.6 2.752,3.968 1.024,2.368 1.024,5.44 v 19.52 q 0,0.704 -0.512,1.216 -0.512,0.512 -1.216,0.512 h -2.368 q -0.704,0 -1.216,-0.512 -0.512,-0.512 -0.512,-1.216 v -2.624 q -0.576,1.216 -1.792,2.176 -1.216,0.896 -2.816,1.536 -1.536,0.64 -3.264,0.96 -1.664,0.32 -3.136,0.32 -2.496,0 -4.608,-0.704 -2.048,-0.704 -3.52,-1.856 -1.408,-1.216 -2.24,-2.88 -0.768,-1.664 -0.768,-3.584 z m 11.776,3.52 q 2.304,0 4.224,-0.704 1.92,-0.704 3.264,-1.92 1.408,-1.28 2.112,-3.008 0.768,-1.728 0.768,-3.84 v -1.6 l -7.552,1.216 q -4.032,0.64 -6.4,2.048 -2.368,1.408 -2.368,3.648 0,0.704 0.32,1.408 0.32,0.704 1.024,1.344 0.704,0.64 1.792,1.024 1.152,0.384 2.816,0.384 z" />
        <path
            d="m 245.13131,60.6804 q 0,-1.216 -0.704,-1.984 -0.64,-0.832 -1.984,-1.408 -1.344,-0.576 -3.456,-1.088 -2.048,-0.512 -4.8,-1.088 -5.184,-1.088 -7.296,-3.584 -2.048,-2.56 -2.048,-5.952 0,-1.92 0.768,-3.648 0.768,-1.728 2.304,-3.072 1.536,-1.344 3.84,-2.112 2.368,-0.768 5.504,-0.768 3.136,0 5.44,0.704 2.368,0.704 3.968,1.792 1.6,1.088 2.432,2.368 0.832,1.216 0.896,2.368 0.064,0.704 -0.512,1.216 -0.512,0.512 -1.216,0.512 h -2.112 q -0.384,0 -0.96,-0.128 -0.512,-0.192 -0.96,-0.768 -0.832,-1.088 -2.496,-1.792 -1.6,-0.768 -4.48,-0.768 -2.944,0 -4.8,1.088 -1.792,1.088 -1.792,3.008 0,1.216 0.512,1.984 0.512,0.704 1.664,1.28 1.152,0.512 3.008,0.96 1.92,0.448 4.736,1.088 2.944,0.64 4.928,1.664 1.984,0.96 3.2,2.24 1.216,1.216 1.728,2.752 0.512,1.472 0.512,3.136 0,1.92 -0.96,3.712 -0.896,1.792 -2.624,3.136 -1.728,1.344 -4.224,2.176 -2.432,0.832 -5.568,0.832 -3.136,0 -5.568,-0.768 -2.432,-0.768 -4.16,-1.856 -1.728,-1.152 -2.688,-2.432 -0.896,-1.344 -0.96,-2.496 -0.064,-0.704 0.448,-1.216 0.512,-0.512 1.28,-0.512 h 2.304 q 0.384,0 0.896,0.128 0.512,0.064 0.96,0.704 1.024,1.408 2.816,2.176 1.792,0.768 4.672,0.768 1.408,0 2.752,-0.32 1.408,-0.32 2.432,-0.896 1.088,-0.576 1.728,-1.344 0.64,-0.832 0.64,-1.792 z" />
        <path
            d="m 264.39535,55.8164 v 12.352 q 0,0.704 -0.512,1.216 -0.512,0.512 -1.216,0.512 h -2.368 q -0.704,0 -1.216,-0.512 -0.512,-0.512 -0.512,-1.216 v -41.984 q 0,-0.704 0.512,-1.216 0.512,-0.512 1.216,-0.512 h 2.368 q 0.704,0 1.216,0.512 0.512,0.512 0.512,1.216 v 21.184 l 12.48,-9.664 q 0.384,-0.32 0.96,-0.704 0.64,-0.384 1.536,-0.384 h 3.2 q 0.64,0 1.088,0.448 0.448,0.448 0.448,1.088 0,0.32 -0.128,0.64 -0.064,0.256 -0.576,0.64 l -15.424,12.032 17.024,15.68 q 0.384,0.384 0.512,0.64 0.128,0.256 0.128,0.576 0,0.64 -0.448,1.088 -0.448,0.448 -1.088,0.448 h -3.008 q -0.96,0 -1.664,-0.384 -0.64,-0.384 -0.96,-0.704 z" />
    </g>
    <style>
        @keyframes foot {
            0% {
                d: path('m364.00768,94.61122c20.1105,12.70134 37.04562,29.6365 25.40272,49.747c-11.64291,20.1105 -50.80543,42.33787 -43.39631,69.85746c7.40912,27.51963 55.96016,69.68002 51.59684,79.65054c-4.36332,9.97052 -30.4279,-27.78667 -57.94752,-20.37754c-27.51963,6.35069 -49.70703,37.05362 -57.11616,37.05362c-7.40912,0 2.07694,-30.70292 -21.20886,-40.22896c-23.2858,-9.52603 -64.10477,-1.0425 -66.35918,-9.65554c-2.25441,-8.61304 57.89162,-24.21474 75.88522,-40.09143c17.99359,-15.87668 9.52603,-21.16894 4.23378,-30.69494c-5.29221,-8.46756 -7.40912,-22.22738 -2.11691,-43.39631c4.23378,-22.22738 14.81825,-53.98078 31.75341,-64.56525c16.93516,-10.58447 39.16253,-1.05844 59.27299,12.70134');
            }

            50% {
                d: path('m364.00768,94.61122c20.1105,12.70134 37.04562,29.6365 25.40272,49.747c-11.64291,20.1105 -50.80543,42.33787 -43.39631,69.85746c7.40912,27.51963 74.05932,55.65317 69.696,65.62369c-4.36332,9.97052 -48.52706,-13.75982 -76.04668,-6.35069c-27.51963,6.35069 -22.5583,48.36559 -29.96743,48.36559c-7.40912,0 -25.07179,-42.01489 -48.35759,-51.54093c-23.2858,-9.52603 -52.34032,12.07939 -54.59473,3.46635c-2.25441,-8.61304 46.12717,-37.33663 64.12077,-53.21332c17.99359,-15.87668 9.52603,-21.16894 4.23378,-30.69494c-5.29221,-8.46756 -7.40912,-22.22738 -2.11691,-43.39631c4.23378,-22.22738 14.81825,-53.98078 31.75341,-64.56525c16.93516,-10.58447 39.16253,-1.05844 59.27299,12.70134');
            }

            100% {
                d: path('m364.00768,94.61122c20.1105,12.70134 37.04562,29.6365 25.40272,49.747c-11.64291,20.1105 -50.80543,42.33787 -43.39631,69.85746c7.40912,27.51963 55.96016,69.68002 51.59684,79.65054c-4.36332,9.97052 -30.4279,-27.78667 -57.94752,-20.37754c-27.51963,6.35069 -49.70703,37.05362 -57.11616,37.05362c-7.40912,0 2.07694,-30.70292 -21.20886,-40.22896c-23.2858,-9.52603 -64.10477,-1.0425 -66.35918,-9.65554c-2.25441,-8.61304 57.89162,-24.21474 75.88522,-40.09143c17.99359,-15.87668 9.52603,-21.16894 4.23378,-30.69494c-5.29221,-8.46756 -7.40912,-22.22738 -2.11691,-43.39631c4.23378,-22.22738 14.81825,-53.98078 31.75341,-64.56525c16.93516,-10.58447 39.16253,-1.05844 59.27299,12.70134');
            }
        }

        #foot {
            animation: foot 5s ease-in-out infinite;
        }
    </style>
    <path id="foot" fill="#4051b5" />
    <ellipse id="eye-white" fill="#c5c5c5" ry="5" rx="12" cy="125" cx="315" />
    <ellipse id="eye-black" fill="#151515" ry="5" rx="5" cy="125" cx="315" />
    <ellipse id="eye-stroke" fill="none" stroke="black" stroke-width="1" ry="5" rx="12" cy="125" cx="315" opacity="0.5" style="filter: blur(1px)" />
    <ellipse id="eye-hl" fill="#ffffff" ry="2.4"  rx="1.2"  cy="124"  cx="316" transform="rotate(-45)" style="transform-box:fill-box;transform-origin:center;filter: blur(0.6px)" />
</svg>