<svg width="320" height="160" xmlns="http://www.w3.org/2000/svg" version="1.1">
 <g id="Layer_1">
  <title>Layer 1</title>
  <g id="svg_10">
   <text xml:space="preserve" text-anchor="start" font-family="'Rubik'" font-size="64" stroke-width="0" id="svg_3" y="136.62923" x="12.00046" stroke="null" fill="#4051b5">OpenAPI3</text>
   <g id="svg_9">
    <path stroke="null" fill="#4051b5" d="m90.64141,26.51067c5.05273,3.19119 9.30765,7.44612 6.38239,12.49885c-2.92526,5.05273 -12.76478,10.63732 -10.90325,17.55157c1.86153,6.91426 15.69004,14.89224 16.48784,16.48784c1.06373,1.5956 -11.16918,-3.45713 -18.08344,-1.5956c-6.91426,1.5956 -8.50985,10.10545 -10.37138,10.10545c-1.86153,0 -3.45713,-8.50985 -9.30765,-10.90325c-5.85052,-2.3934 -15.42411,1.32966 -14.62631,-0.26593c0.7978,-1.5956 12.49885,-8.24392 17.01971,-12.23291c4.52086,-3.98899 2.3934,-5.31866 1.06373,-7.71205c-1.32966,-2.12746 -1.86153,-5.58459 -0.53187,-10.90325c1.06373,-5.58459 3.72306,-13.56258 7.97799,-16.22191c4.25493,-2.65933 9.83952,-0.26593 14.89224,3.19119"/>
    <text xml:space="preserve" text-anchor="start" font-family="'Rubik'" font-size="64" stroke-width="0" id="svg_2" y="73.87061" x="115.90585" stroke="null" fill="#4051b5">Flask</text>
   </g>
  </g>
 </g>

</svg>