<svg width="1280" height="640" xmlns="http://www.w3.org/2000/svg" version="1.1">
 <g id="Layer_1">
  <title>Layer 1</title>
  <g stroke="null" id="svg_4">
   <text stroke="null" xml:space="preserve" text-anchor="start" font-family="'Rubik'" font-size="64" stroke-width="0" id="svg_3" y="132.65502" x="30.18603" fill="#4051b5" transform="matrix(3.98013 0 0 3.98013 -69.1375 4.91327)">OpenAPI3</text>
   <g stroke="null" id="svg_9">
    <path stroke="null" fill="#4051b5" d="m364.00768,94.61122c20.1105,12.70134 37.04562,29.6365 25.40272,49.747c-11.64291,20.1105 -50.80543,42.33787 -43.39631,69.85746c7.40912,27.51963 62.44834,59.27299 65.62369,65.62369c4.23378,6.35069 -44.45475,-13.75982 -71.97437,-6.35069c-27.51963,6.35069 -33.87027,40.22097 -41.2794,40.22097c-7.40912,0 -13.75982,-33.87027 -37.04562,-43.39631c-23.2858,-9.52603 -61.3899,5.29221 -58.21456,-1.05844c3.17535,-6.35069 49.747,-32.81184 67.7406,-48.68853c17.99359,-15.87668 9.52603,-21.16894 4.23378,-30.69494c-5.29221,-8.46756 -7.40912,-22.22738 -2.11691,-43.39631c4.23378,-22.22738 14.81825,-53.98078 31.75341,-64.56525c16.93516,-10.58447 39.16253,-1.05844 59.27299,12.70134" id="svg_1"/>
    <text stroke="null" xml:space="preserve" text-anchor="start" font-family="'Rubik'" font-size="64" stroke-width="0" id="svg_2" y="69.8964" x="134.09142" fill="#4051b5" transform="matrix(3.98013 0 0 3.98013 -69.1375 4.91327)">Flask</text>
   </g>
  </g>
 </g>

</svg>